<mxfile host="app.diagrams.net" modified="2024-03-02T16:10:51.984Z" agent="Mozilla/5.0 (Windows NT 10.0; Win64; x64) AppleWebKit/537.36 (KHTML, like Gecko) Chrome/122.0.0.0 Safari/537.36" etag="Qi4MSodd0MdmgNug2c05" version="23.1.7" type="github">
  <diagram name="Page-1" id="fZ6psMWweICqWGpPFMGe">
    <mxGraphModel dx="422" dy="214" grid="1" gridSize="10" guides="1" tooltips="1" connect="1" arrows="1" fold="1" page="1" pageScale="1" pageWidth="827" pageHeight="1169" math="0" shadow="0">
      <root>
        <mxCell id="0" />
        <mxCell id="1" parent="0" />
        <mxCell id="duEpT1VVlrIcYjsTAH1F-1" value="" style="rounded=1;whiteSpace=wrap;html=1;" vertex="1" parent="1">
          <mxGeometry x="364" y="320" width="126" height="120" as="geometry" />
        </mxCell>
        <mxCell id="duEpT1VVlrIcYjsTAH1F-2" value="" style="image;aspect=fixed;html=1;points=[];align=center;fontSize=12;image=img/lib/azure2/analytics/Azure_Databricks.svg;" vertex="1" parent="1">
          <mxGeometry x="397" y="326" width="16.62" height="18" as="geometry" />
        </mxCell>
        <mxCell id="duEpT1VVlrIcYjsTAH1F-3" value="&lt;b&gt;databricks&lt;/b&gt;" style="text;html=1;align=center;verticalAlign=middle;whiteSpace=wrap;rounded=0;" vertex="1" parent="1">
          <mxGeometry x="414" y="320" width="60" height="30" as="geometry" />
        </mxCell>
        <mxCell id="duEpT1VVlrIcYjsTAH1F-4" value="Assets" style="childLayout=tableLayout;recursiveResize=0;strokeColor=#98bf21;fillColor=#A7C942;shadow=1;" vertex="1" parent="1">
          <mxGeometry x="500" y="420" width="150" height="90" as="geometry" />
        </mxCell>
        <mxCell id="duEpT1VVlrIcYjsTAH1F-5" style="shape=tableRow;horizontal=0;startSize=0;swimlaneHead=0;swimlaneBody=0;top=0;left=0;bottom=0;right=0;dropTarget=0;collapsible=0;recursiveResize=0;expand=0;fontStyle=0;strokeColor=inherit;fillColor=#ffffff;" vertex="1" parent="duEpT1VVlrIcYjsTAH1F-4">
          <mxGeometry width="150" height="19" as="geometry" />
        </mxCell>
        <mxCell id="duEpT1VVlrIcYjsTAH1F-6" value="" style="connectable=0;recursiveResize=0;strokeColor=inherit;fillColor=#A7C942;align=center;fontStyle=1;fontColor=#FFFFFF;html=1;" vertex="1" parent="duEpT1VVlrIcYjsTAH1F-5">
          <mxGeometry width="50" height="19" as="geometry">
            <mxRectangle width="50" height="19" as="alternateBounds" />
          </mxGeometry>
        </mxCell>
        <mxCell id="duEpT1VVlrIcYjsTAH1F-7" value="" style="connectable=0;recursiveResize=0;strokeColor=inherit;fillColor=#A7C942;align=center;fontStyle=1;fontColor=#FFFFFF;html=1;" vertex="1" parent="duEpT1VVlrIcYjsTAH1F-5">
          <mxGeometry x="50" width="50" height="19" as="geometry">
            <mxRectangle width="50" height="19" as="alternateBounds" />
          </mxGeometry>
        </mxCell>
        <mxCell id="duEpT1VVlrIcYjsTAH1F-8" value="" style="connectable=0;recursiveResize=0;strokeColor=inherit;fillColor=#A7C942;align=center;fontStyle=1;fontColor=#FFFFFF;html=1;" vertex="1" parent="duEpT1VVlrIcYjsTAH1F-5">
          <mxGeometry x="100" width="50" height="19" as="geometry">
            <mxRectangle width="50" height="19" as="alternateBounds" />
          </mxGeometry>
        </mxCell>
        <mxCell id="duEpT1VVlrIcYjsTAH1F-9" value="" style="shape=tableRow;horizontal=0;startSize=0;swimlaneHead=0;swimlaneBody=0;top=0;left=0;bottom=0;right=0;dropTarget=0;collapsible=0;recursiveResize=0;expand=0;fontStyle=0;strokeColor=inherit;fillColor=#ffffff;" vertex="1" parent="duEpT1VVlrIcYjsTAH1F-4">
          <mxGeometry y="19" width="150" height="18" as="geometry" />
        </mxCell>
        <mxCell id="duEpT1VVlrIcYjsTAH1F-10" value="" style="connectable=0;recursiveResize=0;strokeColor=inherit;fillColor=inherit;align=center;whiteSpace=wrap;html=1;" vertex="1" parent="duEpT1VVlrIcYjsTAH1F-9">
          <mxGeometry width="50" height="18" as="geometry">
            <mxRectangle width="50" height="18" as="alternateBounds" />
          </mxGeometry>
        </mxCell>
        <mxCell id="duEpT1VVlrIcYjsTAH1F-11" value="" style="connectable=0;recursiveResize=0;strokeColor=inherit;fillColor=inherit;align=center;whiteSpace=wrap;html=1;" vertex="1" parent="duEpT1VVlrIcYjsTAH1F-9">
          <mxGeometry x="50" width="50" height="18" as="geometry">
            <mxRectangle width="50" height="18" as="alternateBounds" />
          </mxGeometry>
        </mxCell>
        <mxCell id="duEpT1VVlrIcYjsTAH1F-12" value="" style="connectable=0;recursiveResize=0;strokeColor=inherit;fillColor=inherit;align=center;whiteSpace=wrap;html=1;" vertex="1" parent="duEpT1VVlrIcYjsTAH1F-9">
          <mxGeometry x="100" width="50" height="18" as="geometry">
            <mxRectangle width="50" height="18" as="alternateBounds" />
          </mxGeometry>
        </mxCell>
        <mxCell id="duEpT1VVlrIcYjsTAH1F-13" value="" style="shape=tableRow;horizontal=0;startSize=0;swimlaneHead=0;swimlaneBody=0;top=0;left=0;bottom=0;right=0;dropTarget=0;collapsible=0;recursiveResize=0;expand=0;fontStyle=1;strokeColor=inherit;fillColor=#EAF2D3;" vertex="1" parent="duEpT1VVlrIcYjsTAH1F-4">
          <mxGeometry y="37" width="150" height="17" as="geometry" />
        </mxCell>
        <mxCell id="duEpT1VVlrIcYjsTAH1F-14" value="" style="connectable=0;recursiveResize=0;strokeColor=inherit;fillColor=inherit;whiteSpace=wrap;html=1;" vertex="1" parent="duEpT1VVlrIcYjsTAH1F-13">
          <mxGeometry width="50" height="17" as="geometry">
            <mxRectangle width="50" height="17" as="alternateBounds" />
          </mxGeometry>
        </mxCell>
        <mxCell id="duEpT1VVlrIcYjsTAH1F-15" value="" style="connectable=0;recursiveResize=0;strokeColor=inherit;fillColor=inherit;whiteSpace=wrap;html=1;" vertex="1" parent="duEpT1VVlrIcYjsTAH1F-13">
          <mxGeometry x="50" width="50" height="17" as="geometry">
            <mxRectangle width="50" height="17" as="alternateBounds" />
          </mxGeometry>
        </mxCell>
        <mxCell id="duEpT1VVlrIcYjsTAH1F-16" value="" style="connectable=0;recursiveResize=0;strokeColor=inherit;fillColor=inherit;whiteSpace=wrap;html=1;" vertex="1" parent="duEpT1VVlrIcYjsTAH1F-13">
          <mxGeometry x="100" width="50" height="17" as="geometry">
            <mxRectangle width="50" height="17" as="alternateBounds" />
          </mxGeometry>
        </mxCell>
        <mxCell id="duEpT1VVlrIcYjsTAH1F-17" value="" style="shape=tableRow;horizontal=0;startSize=0;swimlaneHead=0;swimlaneBody=0;top=0;left=0;bottom=0;right=0;dropTarget=0;collapsible=0;recursiveResize=0;expand=0;fontStyle=0;strokeColor=inherit;fillColor=#ffffff;" vertex="1" parent="duEpT1VVlrIcYjsTAH1F-4">
          <mxGeometry y="54" width="150" height="19" as="geometry" />
        </mxCell>
        <mxCell id="duEpT1VVlrIcYjsTAH1F-18" value="" style="connectable=0;recursiveResize=0;strokeColor=inherit;fillColor=inherit;fontStyle=0;align=center;whiteSpace=wrap;html=1;" vertex="1" parent="duEpT1VVlrIcYjsTAH1F-17">
          <mxGeometry width="50" height="19" as="geometry">
            <mxRectangle width="50" height="19" as="alternateBounds" />
          </mxGeometry>
        </mxCell>
        <mxCell id="duEpT1VVlrIcYjsTAH1F-19" value="" style="connectable=0;recursiveResize=0;strokeColor=inherit;fillColor=inherit;fontStyle=0;align=center;whiteSpace=wrap;html=1;" vertex="1" parent="duEpT1VVlrIcYjsTAH1F-17">
          <mxGeometry x="50" width="50" height="19" as="geometry">
            <mxRectangle width="50" height="19" as="alternateBounds" />
          </mxGeometry>
        </mxCell>
        <mxCell id="duEpT1VVlrIcYjsTAH1F-20" value="" style="connectable=0;recursiveResize=0;strokeColor=inherit;fillColor=inherit;fontStyle=0;align=center;whiteSpace=wrap;html=1;" vertex="1" parent="duEpT1VVlrIcYjsTAH1F-17">
          <mxGeometry x="100" width="50" height="19" as="geometry">
            <mxRectangle width="50" height="19" as="alternateBounds" />
          </mxGeometry>
        </mxCell>
        <mxCell id="duEpT1VVlrIcYjsTAH1F-21" value="" style="shape=tableRow;horizontal=0;startSize=0;swimlaneHead=0;swimlaneBody=0;top=0;left=0;bottom=0;right=0;dropTarget=0;collapsible=0;recursiveResize=0;expand=0;fontStyle=1;strokeColor=inherit;fillColor=#EAF2D3;" vertex="1" parent="duEpT1VVlrIcYjsTAH1F-4">
          <mxGeometry y="73" width="150" height="17" as="geometry" />
        </mxCell>
        <mxCell id="duEpT1VVlrIcYjsTAH1F-22" value="" style="connectable=0;recursiveResize=0;strokeColor=inherit;fillColor=inherit;whiteSpace=wrap;html=1;" vertex="1" parent="duEpT1VVlrIcYjsTAH1F-21">
          <mxGeometry width="50" height="17" as="geometry">
            <mxRectangle width="50" height="17" as="alternateBounds" />
          </mxGeometry>
        </mxCell>
        <mxCell id="duEpT1VVlrIcYjsTAH1F-23" value="" style="connectable=0;recursiveResize=0;strokeColor=inherit;fillColor=inherit;whiteSpace=wrap;html=1;" vertex="1" parent="duEpT1VVlrIcYjsTAH1F-21">
          <mxGeometry x="50" width="50" height="17" as="geometry">
            <mxRectangle width="50" height="17" as="alternateBounds" />
          </mxGeometry>
        </mxCell>
        <mxCell id="duEpT1VVlrIcYjsTAH1F-24" value="" style="connectable=0;recursiveResize=0;strokeColor=inherit;fillColor=inherit;whiteSpace=wrap;html=1;" vertex="1" parent="duEpT1VVlrIcYjsTAH1F-21">
          <mxGeometry x="100" width="50" height="17" as="geometry">
            <mxRectangle width="50" height="17" as="alternateBounds" />
          </mxGeometry>
        </mxCell>
      </root>
    </mxGraphModel>
  </diagram>
</mxfile>
